HIERARCHY
ROOT Hips
{
	OFFSET 0.00000 0.00000 0.00000
	CHANNELS 6 Xposition Yposition Zposition Zrotation Yrotation Xrotation 
	JOINT LHipJoint
	{
		OFFSET 0 0 0
		CHANNELS 3 Zrotation Yrotation Xrotation
		JOINT LeftUpLeg
		{
			OFFSET 1.64577 -1.42384 0.94276
			CHANNELS 3 Zrotation Yrotation Xrotation
			JOINT LeftLeg
			{
				OFFSET 2.11538 -5.81197 0.00000
				CHANNELS 3 Zrotation Yrotation Xrotation
				JOINT LeftFoot
				{
					OFFSET 2.36541 -6.49893 0.00000
					CHANNELS 3 Zrotation Yrotation Xrotation
					JOINT LeftToeBase
					{
						OFFSET 0.17759 -0.48793 1.73865
						CHANNELS 3 Zrotation Yrotation Xrotation
						End Site
						{
							OFFSET 0.00000 -0.00000 0.91205
						}
					}
				}
			}
		}
	}
	JOINT RHipJoint
	{
		OFFSET 0 0 0
		CHANNELS 3 Zrotation Yrotation Xrotation
		JOINT RightUpLeg
		{
			OFFSET -1.43750 -1.42384 0.94276
			CHANNELS 3 Zrotation Yrotation Xrotation
			JOINT RightLeg
			{
				OFFSET -2.10480 -5.78291 0.00000
				CHANNELS 3 Zrotation Yrotation Xrotation
				JOINT RightFoot
				{
					OFFSET -2.34880 -6.45329 0.00000
					CHANNELS 3 Zrotation Yrotation Xrotation
					JOINT RightToeBase
					{
						OFFSET -0.22842 -0.62757 1.80469
						CHANNELS 3 Zrotation Yrotation Xrotation
						End Site
						{
							OFFSET -0.00000 -0.00000 0.95886
						}
					}
				}
			}
		}
	}
	JOINT LowerBack
	{
		OFFSET 0 0 0
		CHANNELS 3 Zrotation Yrotation Xrotation
		JOINT Spine
		{
			OFFSET 0.06217 1.93758 -0.49272
			CHANNELS 3 Zrotation Yrotation Xrotation
			JOINT Spine1
			{
				OFFSET -0.03114 2.03621 -0.05830
				CHANNELS 3 Zrotation Yrotation Xrotation
				JOINT Neck
				{
					OFFSET 0 0 0
					CHANNELS 3 Zrotation Yrotation Xrotation
					JOINT Neck1
					{
						OFFSET 0.04421 1.41010 0.26562
						CHANNELS 3 Zrotation Yrotation Xrotation
						JOINT Head
						{
							OFFSET -0.13407 1.43847 0.06181
							CHANNELS 3 Zrotation Yrotation Xrotation
							End Site
							{
								OFFSET -0.04980 1.45844 -0.00689
							}
						}
					}
				}
				JOINT LeftShoulder
				{
					OFFSET 0 0 0
					CHANNELS 3 Zrotation Yrotation Xrotation
					JOINT LeftArm
					{
						OFFSET 2.18382 1.47753 -0.35694
						CHANNELS 3 Zrotation Yrotation Xrotation
						JOINT LeftForeArm
						{
							OFFSET 5.05460 -0.00000 0.00000
							CHANNELS 3 Zrotation Yrotation Xrotation
							JOINT LeftHand
							{
								OFFSET 3.39013 -0.00000 0.00000
								CHANNELS 3 Zrotation Yrotation Xrotation
								JOINT LeftFingerBase
								{
									OFFSET 0 0 0
									CHANNELS 3 Zrotation Yrotation Xrotation
									JOINT LeftHandIndex1
									{
										OFFSET 0.57242 -0.00000 -0.00000
										CHANNELS 3 Zrotation Yrotation Xrotation
										End Site
										{
											OFFSET 0.46150 -0.00000 -0.00000
										}
									}
								}
								JOINT LThumb
								{
									OFFSET 0 0 0
									CHANNELS 3 Zrotation Yrotation Xrotation
									End Site
									{
										OFFSET 0.46855 -0.00000 0.46855
									}
								}
							}
						}
					}
				}
				JOINT RightShoulder
				{
					OFFSET 0 0 0
					CHANNELS 3 Zrotation Yrotation Xrotation
					JOINT RightArm
					{
						OFFSET -2.06033 1.72839 -0.47437
						CHANNELS 3 Zrotation Yrotation Xrotation
						JOINT RightForeArm
						{
							OFFSET -5.07010 -0.00000 0.00000
							CHANNELS 3 Zrotation Yrotation Xrotation
							JOINT RightHand
							{
								OFFSET -3.14957 -0.00000 -0.00000
								CHANNELS 3 Zrotation Yrotation Xrotation
								JOINT RightFingerBase
								{
									OFFSET 0 0 0
									CHANNELS 3 Zrotation Yrotation Xrotation
									JOINT RightHandIndex1
									{
										OFFSET -0.71819 -0.00000 -0.00000
										CHANNELS 3 Zrotation Yrotation Xrotation
										End Site
										{
											OFFSET -0.57902 -0.00000 -0.00000
										}
									}
								}
								JOINT RThumb
								{
									OFFSET 0 0 0
									CHANNELS 3 Zrotation Yrotation Xrotation
									End Site
									{
										OFFSET -0.58786 -0.00000 0.58786
									}
								}
							}
						}
					}
				}
			}
		}
	}
}
MOTION
Frames: 9
Frame Time: 0.0166666
0.3714 25.5256 2.2175 -15.8485 -72.2151 18.8346 0.0000 0.0000 0.0000 -18.5657 -9.2613 -9.6897 3.4566 11.3998 33.6405 1.7142 2.5558 -25.7661 0.2361 -3.1273 -8.6334 0.0000 0.0000 0.0000 28.6194 9.0050 -10.6321 -3.7506 -11.8209 35.1014 -1.0473 -13.5974 -28.5409 -0.3794 3.9557 -10.9521 1.3485 2.2403 12.3457 -0.3860 2.9380 4.8677 -1.5528 1.4089 -1.7275 10.1769 4.6696 -5.7238 -8.3474 5.7813 1.4471 -3.9444 2.7740 1.8997 0.0000 0.0000 0.0000 -74.4814 -4.4073 38.7752 113.7171 -57.7641 -80.3855 -0.0000 0.0000 -8.1870 37.8148 -0.2809 -0.2180 -7.1250 0.0000 -0.0000 8.8110 29.5686 -3.3514 0.0000 0.0000 0.0000 79.2175 16.5573 66.9542 -25.6346 36.8456 -8.6676 0.0000 0.0000 2.3732 -52.2150 31.8797 -34.2642 7.1250 -0.0000 -0.0000 -10.9384 14.7367 -13.5738
0.3834 25.5037 2.2676 -20.0233 -72.1696 22.6510 0.0000 0.0000 0.0000 -17.4496 -8.7506 -10.0996 3.6098 11.6222 34.4083 1.8201 2.1269 -26.3331 0.1261 -2.2895 -6.3065 0.0000 0.0000 0.0000 29.8431 9.6444 -9.9268 -3.6513 -11.6814 34.6139 -1.0166 -13.8104 -28.5256 -0.3546 3.8257 -10.5867 1.9362 2.2915 12.6557 -0.2301 3.0820 4.7922 -1.7555 1.4803 -1.9447 9.8553 4.4272 -5.9683 -8.6045 5.4895 1.9217 -3.9766 2.6162 2.0527 -0.0000 0.0000 0.0000 -74.5593 -4.9492 39.6164 113.3332 -57.8394 -80.0606 -0.0000 0.0000 -7.9526 39.6336 -0.3981 -0.3297 -7.1250 0.0000 -0.0000 10.2079 29.3896 -3.9414 -0.0000 0.0000 0.0000 78.8776 16.6390 67.5659 -25.4318 36.6421 -8.5463 0.0000 0.0000 1.8849 -53.1281 32.0297 -35.2639 7.1250 -0.0000 -0.0000 -11.3577 15.4373 -14.2085
0.3810 25.4887 2.3218 -21.2804 -71.9861 23.6863 0.0000 0.0000 0.0000 -17.2968 -8.4800 -10.0658 3.6484 11.6772 34.5993 1.9567 1.5178 -27.0298 0.0124 -0.7183 -1.9740 0.0000 0.0000 0.0000 30.1506 9.6878 -9.5433 -3.6201 -11.6369 34.4592 -1.0336 -13.8352 -28.6682 -0.3542 3.8237 -10.5811 1.9559 2.2928 12.7392 -0.2598 3.0860 4.7840 -1.8020 1.4815 -1.9953 9.7094 4.1971 -6.2267 -9.0831 5.2174 2.4732 -4.1047 2.4612 2.2439 -0.0000 0.0000 0.0000 -74.5644 -5.3754 40.4311 113.1000 -57.8845 -79.8631 -0.0000 0.0000 -7.1398 41.0684 -0.1998 -0.1741 -7.1250 0.0000 -0.0000 11.3463 29.6188 -4.3330 -0.0000 0.0000 0.0000 78.5268 16.6789 68.0615 -25.2055 36.4133 -8.4116 0.0000 0.0000 1.3557 -54.0048 32.2287 -36.2844 7.1250 -0.0000 -0.0000 -11.7390 16.1878 -14.8073
0.3597 25.4840 2.3873 -19.7707 -71.8494 22.2252 0.0000 0.0000 0.0000 -18.0930 -8.4246 -9.6154 3.5560 11.5449 34.1405 2.0728 0.9844 -27.6071 0.0127 0.7279 2.0004 0.0000 0.0000 0.0000 29.4666 9.1531 -9.6072 -3.6564 -11.6886 34.6390 -1.0500 -13.7513 -28.7044 -0.4280 4.1987 -11.6364 1.3898 2.2593 12.3156 -0.4852 2.9653 4.8373 -1.6820 1.4235 -1.7343 9.5325 4.0292 -6.6268 -9.4769 5.0341 3.2562 -4.1956 2.3451 2.5313 0.0000 -0.0000 0.0000 -74.6101 -5.5641 41.1403 113.1071 -57.8831 -79.8691 -0.0000 0.0000 -6.3559 41.8447 0.1559 0.1396 -7.1250 0.0000 -0.0000 12.0033 30.0718 -4.4611 0.0000 -0.0000 0.0000 78.1990 16.7200 68.5754 -24.9170 36.1191 -8.2409 0.0000 0.0000 0.9577 -55.0163 32.3119 -37.3743 7.1250 -0.0000 -0.0000 -12.2265 16.9051 -15.5472
0.3378 25.4839 2.4537 -18.1924 -71.7001 20.7646 0.0000 0.0000 0.0000 -18.8889 -8.5007 -9.0433 3.4246 11.3526 33.4784 2.1256 0.7210 -27.8601 0.0532 1.4881 4.0929 0.0000 0.0000 0.0000 28.7500 8.6133 -9.7971 -3.7092 -11.7630 34.8987 -1.0472 -13.7614 -28.6943 -0.5190 4.6173 -12.8203 0.8575 2.2262 11.8083 -0.6677 2.8571 4.8862 -1.5355 1.3708 -1.4308 9.3702 3.8866 -7.0031 -9.7491 4.8885 4.0820 -4.2522 2.2483 2.8283 -0.0000 -0.0000 0.0000 -74.7814 -5.6147 41.8326 113.2326 -57.8589 -79.9754 -0.0000 0.0000 -5.9216 42.3450 0.3873 0.3530 -7.1250 0.0000 -0.0000 12.4301 30.3710 -4.5354 -0.0000 -0.0000 0.0000 77.8526 16.7264 69.0803 -24.6334 35.8269 -8.0743 0.0000 0.0000 0.7682 -56.2039 32.1274 -38.4677 7.1250 -0.0000 -0.0000 -12.8961 17.4519 -16.5142
0.3232 25.4845 2.5098 -17.2672 -71.5526 19.9437 0.0000 0.0000 0.0000 -19.4012 -8.5911 -8.6325 3.3272 11.2067 32.9802 2.1392 0.5898 -27.9038 0.0828 1.8564 5.1091 0.0000 0.0000 0.0000 28.3268 8.4324 -9.8974 -3.7467 -11.8155 35.0822 -1.0550 -13.9021 -28.8808 -0.5481 4.7427 -13.1762 0.4065 2.2246 11.4716 -0.7279 2.8087 4.8882 -1.3249 1.3447 -1.2674 9.2007 3.7553 -7.2395 -9.7996 4.7514 4.7456 -4.2431 2.1657 3.0488 -0.0000 0.0000 0.0000 -74.9737 -5.6146 42.5356 113.3050 -57.8449 -80.0367 -0.0000 0.0000 -5.6386 42.8521 0.4820 0.4471 -7.1250 0.0000 -0.0000 12.8411 30.4920 -4.6541 -0.0000 0.0000 0.0000 77.4203 16.6529 69.5000 -24.4470 35.6334 -7.9655 0.0000 0.0000 0.5989 -57.2638 31.9956 -39.4949 7.1250 -0.0000 -0.0000 -13.4827 18.0022 -17.3818
0.3118 25.4830 2.5556 -16.6828 -71.3979 19.4233 0.0000 0.0000 0.0000 -19.7427 -8.6320 -8.3720 3.2640 11.1106 32.6536 2.1414 0.5152 -27.8922 0.0950 1.9876 5.4715 0.0000 0.0000 0.0000 28.0898 8.4713 -9.9025 -3.7777 -11.8586 35.2335 -1.1188 -13.9693 -29.3819 -0.5000 4.5332 -12.5819 0.0262 2.2165 11.3158 -0.7414 2.7618 4.8537 -1.1147 1.3182 -1.2379 8.9363 3.6868 -7.5205 -9.5085 4.6798 5.3587 -4.1087 2.1260 3.2576 -0.0000 0.0000 0.0000 -75.1483 -5.5993 43.1569 113.2732 -57.8511 -80.0098 -0.0000 0.0000 -5.1905 43.2973 0.6722 0.6334 -7.1250 0.0000 -0.0000 13.2217 30.7428 -4.7171 -0.0000 0.0000 0.0000 76.9730 16.5464 69.7913 -24.3246 35.5056 -7.8943 0.0000 0.0000 0.4270 -58.0045 32.0959 -40.3800 7.1250 -0.0000 -0.0000 -13.8241 18.6211 -17.9353
0.3017 25.4779 2.6010 -15.8506 -71.2739 18.6448 0.0000 0.0000 0.0000 -20.1764 -8.7088 -8.1459 3.2225 11.0468 32.4377 2.1402 0.5042 -27.8805 0.0886 1.9204 5.2856 0.0000 0.0000 0.0000 27.7462 8.3892 -9.9269 -3.8090 -11.9018 35.3856 -1.2145 -13.8497 -29.9152 -0.4275 4.1961 -11.6290 -0.3686 2.1628 11.2146 -0.7597 2.6526 4.8367 -0.8959 1.2600 -1.2201 8.5420 3.7049 -7.9761 -8.9717 4.7108 6.0446 -3.8682 2.1406 3.5183 -0.0000 0.0000 0.0000 -75.4436 -5.5152 43.5952 113.3615 -57.8339 -80.0845 -0.0000 0.0000 -4.6644 43.5902 0.9680 0.9213 -7.1250 0.0000 -0.0000 13.5042 31.1382 -4.6912 -0.0000 0.0000 0.0000 76.5359 16.4998 70.0516 -24.2135 35.3892 -7.8299 0.0000 0.0000 0.3120 -58.5542 32.1214 -41.0078 7.1250 -0.0000 -0.0000 -14.0947 19.0324 -18.3649
0.2949 25.4677 2.6462 -15.5629 -71.1637 18.2654 0.0000 0.0000 0.0000 -20.4501 -8.8146 -7.8566 3.2109 11.0289 32.3774 2.1570 0.4551 -27.9730 0.0850 1.8810 5.1768 0.0000 0.0000 0.0000 27.5772 8.1392 -9.8532 -3.8274 -11.9272 35.4748 -1.3091 -13.6165 -30.3292 -0.3465 3.7824 -10.4653 -0.5063 2.0847 11.2549 -0.7400 2.5340 4.8792 -0.7848 1.1983 -1.2062 8.2952 3.7281 -8.4610 -8.4834 4.7329 6.7586 -3.6672 2.1533 3.7972 0.0000 -0.0000 0.0000 -75.7640 -5.3911 43.9015 113.6591 -57.7755 -80.3364 -0.0000 0.0000 -4.3396 43.8571 1.1992 1.1521 -7.1250 0.0000 -0.0000 13.7565 31.4497 -4.6774 0.0000 -0.0000 0.0000 76.1902 16.4973 70.2525 -24.1232 35.2943 -7.7776 0.0000 0.0000 0.2947 -59.0314 32.0285 -41.4681 7.1250 -0.0000 -0.0000 -14.3712 19.2638 -18.7783
